<svg width="400" height="400" viewBox="0 0 400 400" fill="none" xmlns="http://www.w3.org/2000/svg">
<path d="M76.9906 132.192C76.1359 132.192 54.2 131.907 49.6419 131.907C47.3628 131.907 47.3628 131.623 48.5024 128.489C49.0721 126.21 51.0663 123.646 52.7756 122.221C55.3395 120.227 57.0488 118.803 59.6128 117.094C71.2929 109.402 82.9731 104.844 94.6532 102.565C112.886 99.4309 129.694 100.286 145.077 105.698C153.624 108.547 160.461 113.675 165.304 122.221C166.728 124.785 168.723 127.919 170.717 129.913C172.711 131.623 174.705 131.907 175.845 131.907C183.536 131.907 190.943 131.907 198.35 131.907C199.775 131.907 201.769 131.907 202.339 131.907C203.193 131.907 203.763 131.907 203.763 132.477C203.763 133.047 202.908 133.617 202.339 133.617C200.06 134.471 194.362 136.181 188.664 137.605C182.682 139.314 173.281 141.593 172.141 141.878C171.002 142.163 170.147 142.163 169.862 143.303C169.577 144.157 170.717 144.442 171.287 144.727C172.141 145.582 176.699 147.576 177.839 148.146C178.409 148.715 178.978 149.285 178.978 150.14C178.693 150.995 177.554 151.564 176.984 151.849C175.56 152.704 174.135 153.558 172.711 154.128C165.589 157.547 158.182 160.965 150.775 164.099C148.781 164.954 146.502 165.239 144.508 165.524C142.798 165.808 141.659 164.954 140.804 163.244C139.095 159.541 136.531 157.547 133.112 156.407C123.711 152.704 112.601 152.989 102.345 155.553C100.921 156.122 98.6416 156.977 97.2172 157.832C96.0777 158.686 94.6532 159.541 93.7986 160.681C90.38 164.669 89.8102 166.948 92.9439 168.942C94.6532 170.082 96.9323 170.936 102.63 173.215C108.043 175.494 122.287 180.053 132.543 182.901C142.513 186.035 152.199 187.744 159.037 189.454C160.746 189.739 163.595 190.593 165.019 191.163C166.444 191.448 166.728 192.018 166.728 192.872C166.444 193.442 164.449 194.297 163.595 194.866C161.601 195.721 157.612 197.43 155.903 198.57C153.909 199.709 153.054 200.849 153.339 201.419C153.339 202.273 153.909 202.273 154.478 202.558C155.903 202.558 157.612 202.558 159.037 202.558C165.304 202.558 171.571 202.558 177.554 202.558C178.409 202.558 180.403 202.558 181.257 202.558C182.112 202.843 182.112 203.983 181.257 204.837C180.118 205.692 176.984 206.831 175.845 207.116C172.426 208.256 163.88 210.82 162.455 211.39C161.316 211.959 161.316 213.099 162.17 213.384C163.025 213.953 172.141 216.802 175.845 218.227C180.403 219.936 180.972 221.36 177.839 228.198C170.717 245.29 161.885 261.244 149.92 275.203C137.67 289.447 123.996 298.279 109.467 303.406C101.775 305.97 94.3684 307.395 86.9614 307.965C71.2929 309.104 56.1942 307.68 42.5198 302.552C36.8222 300.273 31.6943 297.139 27.1362 292.866C23.1479 288.593 20.0141 283.465 18.02 277.482C15.7409 270.645 18.8746 263.808 23.4327 258.965C25.4269 256.686 27.9908 254.692 30.2699 253.552C39.9559 248.709 49.6419 243.866 59.6128 239.593C61.322 238.738 63.0313 238.168 65.0255 238.168C67.0197 238.168 68.729 239.593 69.2987 241.872C71.008 248.709 75.5661 251.843 81.2638 253.552C90.38 256.116 100.636 256.116 106.903 254.692C113.171 253.552 117.159 251.558 120.293 248.424C124.851 243.866 125.705 239.308 122.002 236.744C120.578 235.605 119.153 234.75 117.444 234.18C102.915 229.052 88.3858 223.924 73.572 219.366C66.7348 217.372 47.6477 213.099 47.0779 213.099C46.7931 212.814 46.5082 212.529 46.5082 211.959C46.7931 211.39 47.0779 211.105 47.6477 210.82C48.2175 210.535 50.4965 209.395 52.7756 208.541C55.0546 207.686 60.1825 205.407 60.7523 204.837C61.322 204.267 61.6069 203.983 61.6069 203.413C61.6069 202.843 61.322 202.558 60.7523 202.558C59.8976 202.558 59.043 202.558 58.1883 202.558C50.7814 202.558 37.1071 202.558 35.9675 202.558C35.1129 202.558 33.9734 202.558 33.6885 201.419C33.6885 200.279 36.8222 199.14 39.9559 197.715C43.0896 196.006 47.9326 194.582 49.6419 193.727C51.3512 193.157 52.4907 192.587 52.7756 192.302C53.0605 192.018 53.3453 191.448 53.0605 191.163C52.7756 190.593 51.6361 190.308 51.0663 190.023C49.9268 189.739 43.3745 187.744 41.0954 186.89C39.9559 186.32 38.8164 185.75 37.6768 185.18C35.9675 183.756 35.6827 182.616 37.1071 179.198C38.8164 175.21 40.8105 171.506 43.0896 167.518C45.3687 163.529 47.9326 159.541 50.4965 155.553C52.7756 151.564 53.0605 150.14 50.2116 148.715C47.9326 147.576 45.3687 146.721 42.8047 145.582C41.9501 145.012 40.5257 144.442 40.5257 143.303C40.2408 141.878 43.0896 141.593 44.2291 141.309C49.6419 139.884 55.0546 138.745 60.4674 137.605C65.8802 136.181 76.1359 133.617 76.7057 133.332C77.5603 133.047 77.8452 133.047 77.8452 132.477C77.8452 132.192 77.5603 132.192 76.9906 132.192ZM338.514 191.733C348.77 191.733 359.026 191.733 368.997 191.733C370.706 191.733 374.125 192.018 374.41 192.018C374.694 192.018 374.979 192.018 374.979 192.302C374.979 192.872 374.41 193.157 374.125 193.157C372.415 193.727 370.706 194.582 369.282 195.151C367.572 196.006 366.148 196.576 364.724 197.43C363.584 198.285 362.445 198.855 361.59 199.994C360.166 201.988 360.166 202.558 361.875 202.558C369.282 202.558 376.689 202.558 384.096 202.558C384.95 202.558 385.805 202.558 386.375 202.558C387.229 202.558 387.514 203.413 386.944 203.983C386.375 204.552 384.95 204.837 383.526 205.407C382.101 205.977 377.543 207.401 374.694 208.256C372.131 208.826 365.009 210.82 364.154 211.105C363.584 211.39 362.729 211.674 362.729 212.244C362.445 212.814 362.729 213.099 363.299 213.669C363.869 213.953 365.009 214.238 365.863 214.523C368.712 215.663 371.561 216.233 374.125 217.372C378.113 219.366 378.398 220.791 374.694 226.488C348.77 267.796 317.433 294.29 280.683 304.546C272.992 306.54 265.3 307.395 257.893 307.68C243.364 308.249 229.974 305.97 218.009 299.988C209.178 295.145 201.771 288.877 196.928 278.907C190.376 264.947 190.946 248.424 198.353 229.052C198.922 227.343 199.777 225.634 200.347 223.924C201.201 221.076 201.201 219.366 199.777 218.512C198.068 217.657 197.498 217.657 196.358 217.087C193.794 216.233 187.242 213.669 186.387 213.099C185.248 212.814 185.533 211.959 186.957 211.39C188.097 210.82 196.928 207.971 201.486 206.831C203.196 206.262 207.184 204.837 209.463 203.983C210.033 203.698 210.887 203.413 210.602 202.843C210.602 202.558 210.033 202.558 209.178 202.558C208.608 202.558 207.754 202.558 206.899 202.558C200.347 202.558 185.533 202.558 184.678 202.558C183.539 202.558 183.254 201.704 184.393 200.849C185.533 199.994 187.527 199.14 190.661 198C194.934 196.291 205.19 193.157 209.463 192.018C210.318 191.733 212.312 191.163 212.597 190.308C212.881 189.454 212.312 189.169 210.887 188.599C209.748 188.029 206.899 187.459 205.475 186.89C203.765 186.32 202.341 185.75 200.632 185.18C196.643 183.186 196.643 181.762 200.916 176.919C206.044 170.367 211.457 164.099 216.87 157.832C217.724 156.977 219.149 155.838 220.004 154.698C223.137 151.279 222.852 150.425 220.288 149C218.579 147.861 216.585 147.006 214.591 146.152C214.021 145.867 212.881 145.582 212.027 145.012C211.457 144.442 211.172 143.303 212.881 142.733C214.591 142.163 217.44 141.593 219.434 141.309C223.992 140.169 239.091 137.035 242.509 136.181C246.498 135.326 250.771 134.187 252.195 133.617C253.905 133.047 254.759 132.762 254.759 132.192C254.474 132.192 253.905 132.192 253.62 132.192C252.195 131.907 250.771 132.192 249.346 132.192C241.655 132.192 233.963 132.192 226.271 131.907C225.131 131.907 223.137 132.192 222.567 131.623C221.998 130.483 224.847 127.919 225.986 126.78C228.265 124.785 230.259 123.076 232.538 121.937C243.364 114.815 254.189 109.687 265.3 106.268C287.236 99.7158 307.462 98.8611 325.98 105.129C335.381 108.262 343.357 113.96 349.34 122.506C351.619 125.64 352.474 127.634 356.177 130.198C357.886 131.623 359.881 131.907 361.59 131.907C369.852 132.192 378.113 132.192 386.66 132.192C387.799 132.192 389.223 132.192 390.648 132.192C390.933 132.192 391.503 132.192 391.503 132.762C391.503 133.047 390.648 133.902 390.078 133.902C388.654 134.756 387.514 135.326 383.811 136.466C380.392 137.605 377.543 138.46 373.555 139.599C370.706 140.169 367.857 140.739 364.724 141.593C363.869 141.878 362.16 142.448 361.875 143.018C361.305 144.727 363.014 145.012 363.869 145.582C365.009 145.867 366.433 146.436 367.572 146.721C368.997 147.291 370.421 147.861 371.846 148.431C372.7 148.715 373.555 149.285 374.125 149.855C375.834 150.995 375.834 152.419 373.555 154.413C370.136 157.262 364.154 160.396 360.166 162.39C351.904 166.093 344.212 169.512 335.951 173.5C334.241 174.07 332.817 174.925 331.392 175.21C328.259 176.064 325.695 175.494 324.555 172.646C322.561 167.518 318.573 164.669 314.3 163.244C306.323 160.396 297.491 160.396 288.375 161.25C280.683 161.82 272.707 163.814 264.73 168.087C259.887 170.367 255.329 173.5 251.056 177.204C250.201 178.058 249.346 178.628 248.492 179.483C246.498 181.762 246.213 183.186 248.207 184.326C249.631 185.465 251.341 186.035 253.05 186.605C254.759 187.459 256.468 188.029 258.178 188.599C258.463 188.884 259.317 189.454 259.317 190.308C259.032 190.878 257.608 191.448 257.038 191.733C254.474 192.302 251.91 192.872 249.346 193.727C245.358 194.582 239.66 196.291 234.533 198.855C231.114 200.849 230.544 201.988 230.544 202.273C230.829 202.558 232.253 202.558 232.823 202.558C239.945 202.558 247.067 202.558 254.189 202.558C255.044 202.558 255.899 202.558 256.468 202.558C256.753 202.558 257.323 202.558 257.323 202.843C257.323 203.413 257.038 203.698 255.899 204.267C255.044 204.837 253.335 205.407 251.91 205.977C247.922 207.116 244.788 207.971 241.085 209.11C239.091 209.68 237.096 210.25 235.102 210.82C234.533 211.105 233.108 211.39 232.823 212.244C232.538 213.099 233.963 213.384 234.248 213.669C235.957 214.523 237.666 214.808 239.376 215.378C241.655 216.517 244.219 217.372 246.782 218.227C248.777 219.081 249.346 221.076 248.492 224.494C246.213 233.041 248.207 238.738 252.765 242.442C256.184 245.29 260.457 246.715 265.015 247.285C275.84 248.709 286.951 248.424 298.631 245.006C303.189 243.866 308.032 241.872 312.59 239.023C312.875 238.738 313.73 238.453 313.73 237.884C314.015 237.314 313.16 237.599 312.59 237.599C305.468 237.314 298.631 237.314 291.509 237.314C290.085 237.314 288.945 237.314 287.805 237.029C283.817 236.174 282.678 232.186 284.672 226.488C285.242 225.349 285.811 224.209 286.381 223.07C287.236 221.076 286.951 219.651 285.811 219.081C285.242 218.512 284.387 217.942 283.532 217.657C281.823 216.802 280.114 216.233 278.119 215.378C276.98 215.093 275.556 214.808 274.701 214.238C273.561 213.669 272.422 213.099 272.422 212.244C272.422 211.105 273.276 211.105 275.556 210.535C277.835 209.68 280.683 209.11 283.247 208.541C286.096 207.686 288.375 206.831 291.794 205.692C292.933 205.407 295.782 204.267 296.352 203.983C296.922 203.698 297.491 203.128 297.207 202.843C297.207 202.558 296.637 202.558 296.067 202.558C295.497 202.558 294.928 202.558 294.073 202.558C287.236 202.558 280.399 202.558 273.561 202.558C272.992 202.558 272.137 202.558 271.567 202.558C270.713 202.273 270.713 201.704 271.282 201.134C272.992 199.994 274.131 199.14 278.404 197.715C282.678 196.006 284.957 195.436 288.945 194.582C298.061 192.587 306.893 191.448 315.724 191.733C323.416 192.018 331.108 191.733 338.514 191.733Z" fill="#0D47A1"/>
<path d="M68.088 124.758C67.2333 124.758 45.2974 124.473 40.7393 124.473C38.4602 124.473 38.4602 124.188 39.5998 121.055C40.1695 118.775 42.1637 116.212 43.873 114.787C46.4369 112.793 48.1462 111.369 50.7102 109.659C62.3903 101.967 74.0705 97.4093 85.7507 95.1303C103.983 91.9966 120.791 92.8512 136.175 98.264C144.721 101.113 151.558 106.241 156.401 114.787C157.826 117.351 159.82 120.485 161.814 122.479C163.808 124.188 165.803 124.473 166.942 124.473C174.634 124.473 182.041 124.473 189.448 124.473C190.872 124.473 192.866 124.473 193.436 124.473C194.291 124.473 194.86 124.473 194.86 125.043C194.86 125.613 194.006 126.182 193.436 126.182C191.157 127.037 185.459 128.746 179.762 130.171C173.779 131.88 164.378 134.159 163.239 134.444C162.099 134.729 161.244 134.729 160.96 135.868C160.675 136.723 161.814 137.008 162.384 137.293C163.239 138.147 167.797 140.142 168.936 140.711C169.506 141.281 170.076 141.851 170.076 142.706C169.791 143.56 168.651 144.13 168.082 144.415C166.657 145.27 165.233 146.124 163.808 146.694C156.686 150.113 149.279 153.531 141.872 156.665C139.878 157.519 137.599 157.804 135.605 158.089C133.896 158.374 132.756 157.519 131.902 155.81C130.192 152.107 127.628 150.113 124.21 148.973C114.809 145.27 103.698 145.554 93.4425 148.118C92.0181 148.688 89.739 149.543 88.3146 150.397C87.1751 151.252 85.7507 152.107 84.896 153.246C81.4774 157.235 80.9077 159.514 84.0414 161.508C85.7507 162.647 88.0297 163.502 93.7273 165.781C99.1401 168.06 113.384 172.618 123.64 175.467C133.611 178.601 143.297 180.31 150.134 182.019C151.843 182.304 154.692 183.159 156.117 183.729C157.541 184.013 157.826 184.583 157.826 185.438C157.541 186.008 155.547 186.862 154.692 187.432C152.698 188.287 148.71 189.996 147 191.136C145.006 192.275 144.151 193.415 144.436 193.984C144.436 194.839 145.006 194.839 145.576 195.124C147 195.124 148.71 195.124 150.134 195.124C156.401 195.124 162.669 195.124 168.651 195.124C169.506 195.124 171.5 195.124 172.355 195.124C173.209 195.409 173.209 196.548 172.355 197.403C171.215 198.258 168.082 199.397 166.942 199.682C163.523 200.822 154.977 203.385 153.553 203.955C152.413 204.525 152.413 205.665 153.268 205.949C154.122 206.519 163.239 209.368 166.942 210.792C171.5 212.502 172.07 213.926 168.936 220.763C161.814 237.856 152.983 253.81 141.018 267.769C128.768 282.013 115.094 290.844 100.565 295.972C92.8727 298.536 85.4658 299.96 78.0588 300.53C62.3903 301.67 47.2916 300.245 33.6172 295.117C27.9196 292.838 22.7917 289.705 18.2336 285.431C14.2453 281.158 11.1116 276.03 9.11739 270.048C6.83833 263.211 9.97203 256.374 14.5301 251.531C16.5243 249.251 19.0883 247.257 21.3673 246.118C31.0533 241.275 40.7393 236.432 50.7102 232.159C52.4195 231.304 54.1287 230.734 56.1229 230.734C58.1171 230.734 59.8264 232.159 60.3962 234.438C62.1054 241.275 66.6636 244.408 72.3612 246.118C81.4774 248.682 91.7332 248.682 98.0006 247.257C104.268 246.118 108.256 244.124 111.39 240.99C115.948 236.432 116.803 231.874 113.099 229.31C111.675 228.17 110.251 227.316 108.541 226.746C94.0122 221.618 79.4832 216.49 64.6694 211.932C57.8322 209.938 38.7451 205.665 38.1754 205.665C37.8905 205.38 37.6056 205.095 37.6056 204.525C37.8905 203.955 38.1754 203.67 38.7451 203.385C39.3149 203.101 41.5939 201.961 43.873 201.106C46.1521 200.252 51.2799 197.973 51.8497 197.403C52.4195 196.833 52.7043 196.548 52.7043 195.979C52.7043 195.409 52.4195 195.124 51.8497 195.124C50.995 195.124 50.1404 195.124 49.2858 195.124C41.8788 195.124 28.2045 195.124 27.065 195.124C26.2103 195.124 25.0708 195.124 24.7859 193.984C24.7859 192.845 27.9196 191.705 31.0533 190.281C34.187 188.572 39.03 187.147 40.7393 186.293C42.4486 185.723 43.5881 185.153 43.873 184.868C44.1579 184.583 44.4428 184.013 44.1579 183.729C43.873 183.159 42.7335 182.874 42.1637 182.589C41.0242 182.304 34.4719 180.31 32.1928 179.455C31.0533 178.886 29.9138 178.316 28.7742 177.746C27.065 176.322 26.7801 175.182 28.2045 171.764C29.9138 167.775 31.908 164.072 34.187 160.083C36.4661 156.095 39.03 152.107 41.5939 148.118C43.873 144.13 44.1579 142.706 41.3091 141.281C39.03 140.142 36.4661 139.287 33.9021 138.147C33.0475 137.578 31.6231 137.008 31.6231 135.868C31.3382 134.444 34.187 134.159 35.3265 133.874C40.7393 132.45 46.1521 131.31 51.5648 130.171C56.9776 128.746 67.2333 126.182 67.8031 125.898C68.6577 125.613 68.9426 125.613 68.9426 125.043C68.9426 124.758 68.6577 124.758 68.088 124.758ZM329.612 184.298C339.868 184.298 350.123 184.298 360.094 184.298C361.804 184.298 365.222 184.583 365.507 184.583C365.792 184.583 366.077 184.583 366.077 184.868C366.077 185.438 365.507 185.723 365.222 185.723C363.513 186.293 361.804 187.147 360.379 187.717C358.67 188.572 357.245 189.141 355.821 189.996C354.682 190.851 353.542 191.42 352.687 192.56C351.263 194.554 351.263 195.124 352.972 195.124C360.379 195.124 367.786 195.124 375.193 195.124C376.048 195.124 376.902 195.124 377.472 195.124C378.327 195.124 378.612 195.979 378.042 196.548C377.472 197.118 376.048 197.403 374.623 197.973C373.199 198.542 368.641 199.967 365.792 200.822C363.228 201.391 356.106 203.385 355.251 203.67C354.682 203.955 353.827 204.24 353.827 204.81C353.542 205.38 353.827 205.665 354.397 206.234C354.966 206.519 356.106 206.804 356.961 207.089C359.809 208.228 362.658 208.798 365.222 209.938C369.21 211.932 369.495 213.356 365.792 219.054C339.868 260.362 308.531 286.856 271.781 297.112C264.089 299.106 256.397 299.96 248.99 300.245C234.461 300.815 221.072 298.536 209.107 292.554C200.275 287.711 192.869 281.443 188.026 271.472C181.473 257.513 182.043 240.99 189.45 221.618C190.02 219.909 190.874 218.199 191.444 216.49C192.299 213.641 192.299 211.932 190.874 211.077C189.165 210.223 188.595 210.223 187.456 209.653C184.892 208.798 178.34 206.234 177.485 205.665C176.345 205.38 176.63 204.525 178.055 203.955C179.194 203.385 188.026 200.537 192.584 199.397C194.293 198.827 198.281 197.403 200.56 196.548C201.13 196.263 201.985 195.979 201.7 195.409C201.7 195.124 201.13 195.124 200.275 195.124C199.706 195.124 198.851 195.124 197.996 195.124C191.444 195.124 176.63 195.124 175.776 195.124C174.636 195.124 174.351 194.269 175.491 193.415C176.63 192.56 178.624 191.705 181.758 190.566C186.031 188.856 196.287 185.723 200.56 184.583C201.415 184.298 203.409 183.729 203.694 182.874C203.979 182.019 203.409 181.734 201.985 181.165C200.845 180.595 197.996 180.025 196.572 179.455C194.863 178.886 193.438 178.316 191.729 177.746C187.741 175.752 187.741 174.327 192.014 169.484C197.142 162.932 202.555 156.665 207.967 150.397C208.822 149.543 210.246 148.403 211.101 147.264C214.235 143.845 213.95 142.99 211.386 141.566C209.677 140.427 207.682 139.572 205.688 138.717C205.118 138.432 203.979 138.147 203.124 137.578C202.555 137.008 202.27 135.868 203.979 135.299C205.688 134.729 208.537 134.159 210.531 133.874C215.089 132.735 230.188 129.601 233.607 128.746C237.595 127.892 241.868 126.752 243.293 126.182C245.002 125.613 245.857 125.328 245.857 124.758C245.572 124.758 245.002 124.758 244.717 124.758C243.293 124.473 241.868 124.758 240.444 124.758C232.752 124.758 225.06 124.758 217.368 124.473C216.229 124.473 214.235 124.758 213.665 124.188C213.095 123.049 215.944 120.485 217.083 119.345C219.363 117.351 221.357 115.642 223.636 114.502C234.461 107.38 245.287 102.252 256.397 98.8337C278.333 92.2815 298.56 91.4268 317.077 97.6942C326.478 100.828 334.455 106.526 340.437 115.072C342.716 118.206 343.571 120.2 347.275 122.764C348.984 124.188 350.978 124.473 352.687 124.473C360.949 124.758 369.21 124.758 377.757 124.758C378.896 124.758 380.321 124.758 381.745 124.758C382.03 124.758 382.6 124.758 382.6 125.328C382.6 125.613 381.745 126.467 381.176 126.467C379.751 127.322 378.612 127.892 374.908 129.031C371.49 130.171 368.641 131.025 364.652 132.165C361.804 132.735 358.955 133.304 355.821 134.159C354.966 134.444 353.257 135.014 352.972 135.584C352.402 137.293 354.112 137.578 354.966 138.147C356.106 138.432 357.53 139.002 358.67 139.287C360.094 139.857 361.519 140.427 362.943 140.996C363.798 141.281 364.652 141.851 365.222 142.421C366.931 143.56 366.931 144.985 364.652 146.979C361.234 149.828 355.251 152.961 351.263 154.956C343.001 158.659 335.31 162.078 327.048 166.066C325.339 166.636 323.914 167.49 322.49 167.775C319.356 168.63 316.792 168.06 315.653 165.211C313.658 160.083 309.67 157.235 305.397 155.81C297.42 152.961 288.589 152.961 279.473 153.816C271.781 154.386 263.804 156.38 255.827 160.653C250.984 162.932 246.426 166.066 242.153 169.769C241.298 170.624 240.444 171.194 239.589 172.048C237.595 174.327 237.31 175.752 239.304 176.891C240.729 178.031 242.438 178.601 244.147 179.17C245.857 180.025 247.566 180.595 249.275 181.165C249.56 181.45 250.415 182.019 250.415 182.874C250.13 183.444 248.705 184.013 248.136 184.298C245.572 184.868 243.008 185.438 240.444 186.293C236.455 187.147 230.758 188.856 225.63 191.42C222.211 193.415 221.642 194.554 221.642 194.839C221.926 195.124 223.351 195.124 223.921 195.124C231.043 195.124 238.165 195.124 245.287 195.124C246.141 195.124 246.996 195.124 247.566 195.124C247.851 195.124 248.421 195.124 248.421 195.409C248.421 195.979 248.136 196.263 246.996 196.833C246.141 197.403 244.432 197.973 243.008 198.542C239.019 199.682 235.886 200.537 232.182 201.676C230.188 202.246 228.194 202.816 226.2 203.385C225.63 203.67 224.206 203.955 223.921 204.81C223.636 205.665 225.06 205.949 225.345 206.234C227.054 207.089 228.764 207.374 230.473 207.944C232.752 209.083 235.316 209.938 237.88 210.792C239.874 211.647 240.444 213.641 239.589 217.06C237.31 225.606 239.304 231.304 243.862 235.007C247.281 237.856 251.554 239.281 256.112 239.85C266.938 241.275 278.048 240.99 289.728 237.571C294.287 236.432 299.13 234.438 303.688 231.589C303.973 231.304 304.827 231.019 304.827 230.449C305.112 229.879 304.257 230.164 303.688 230.164C296.566 229.879 289.728 229.879 282.606 229.879C281.182 229.879 280.042 229.879 278.903 229.595C274.915 228.74 273.775 224.752 275.769 219.054C276.339 217.914 276.909 216.775 277.478 215.635C278.333 213.641 278.048 212.217 276.909 211.647C276.339 211.077 275.484 210.507 274.63 210.223C272.92 209.368 271.211 208.798 269.217 207.944C268.077 207.659 266.653 207.374 265.798 206.804C264.659 206.234 263.519 205.665 263.519 204.81C263.519 203.67 264.374 203.67 266.653 203.101C268.932 202.246 271.781 201.676 274.345 201.106C277.194 200.252 279.473 199.397 282.891 198.258C284.031 197.973 286.88 196.833 287.449 196.548C288.019 196.263 288.589 195.694 288.304 195.409C288.304 195.124 287.734 195.124 287.164 195.124C286.595 195.124 286.025 195.124 285.17 195.124C278.333 195.124 271.496 195.124 264.659 195.124C264.089 195.124 263.234 195.124 262.665 195.124C261.81 194.839 261.81 194.269 262.38 193.699C264.089 192.56 265.229 191.705 269.502 190.281C273.775 188.572 276.054 188.002 280.042 187.147C289.159 185.153 297.99 184.013 306.821 184.298C314.513 184.583 322.205 184.298 329.612 184.298Z" fill="#F57F13"/>
</svg>
